HIERARCHY
ROOT Hips
{
  OFFSET 13.6774 106.653 -34.4427
  CHANNELS 6 Xposition Yposition Zposition Zrotation Xrotation Yrotation
  JOINT ToSpine
  {
    OFFSET -2.69724 7.43032 -0.144315
    CHANNELS 3 Zrotation Xrotation Yrotation
    JOINT Spine
    {
      OFFSET -0.0310711 10.7595 1.96963
      CHANNELS 3 Zrotation Xrotation Yrotation
      JOINT Spine1
      {
        OFFSET 19.9056 3.91189 0.764692
        CHANNELS 3 Zrotation Xrotation Yrotation
        JOINT Neck
        {
          OFFSET 25.9749 7.03908 -0.130764
          CHANNELS 3 Zrotation Xrotation Yrotation
          JOINT Head
          {
            OFFSET 9.52751 0.295786 -0.907742
            CHANNELS 3 Zrotation Xrotation Yrotation
            End Site
            {
              OFFSET 16.4037 0.713936 2.7358
            }
          }
        }
        JOINT LeftShoulder
        {
          OFFSET 17.7449 4.33886 11.7777
          CHANNELS 3 Zrotation Xrotation Yrotation
          JOINT LeftArm
          {
            OFFSET 0.911315 1.27913 9.80584
            CHANNELS 3 Zrotation Xrotation Yrotation
            JOINT LeftForeArm
            {
              OFFSET 28.6126 1.18197 -3.53199
              CHANNELS 3 Zrotation Xrotation Yrotation
              JOINT LeftHand
              {
                OFFSET 27.5088 0.0218783 0.327423
                CHANNELS 3 Zrotation Xrotation Yrotation
                End Site
                {
                  OFFSET 18.6038 -0.000155887 0.382096
                }
              }
            }
          }
        }
        JOINT RightShoulder
        {
          OFFSET 17.1009 2.89543 -12.2328
          CHANNELS 3 Zrotation Xrotation Yrotation
          JOINT RightArm
          {
            OFFSET 1.4228 0.178766 -10.211
            CHANNELS 3 Zrotation Xrotation Yrotation
            JOINT RightForeArm
            {
              OFFSET 28.733 1.87905 2.64907
              CHANNELS 3 Zrotation Xrotation Yrotation
              JOINT RightHand
              {
                OFFSET 27.4588 0.290562 -0.101845
                CHANNELS 3 Zrotation Xrotation Yrotation
                End Site
                {
                  OFFSET 17.8396 -0.255518 -0.000602873
                }
              }
            }
          }
        }
      }
    }
  }
  JOINT LeftUpLeg
  {
    OFFSET -5.61296 -2.22332 -10.2353
    CHANNELS 3 Zrotation Xrotation Yrotation
    JOINT LeftLeg
    {
      OFFSET 2.56703 -44.7417 -7.93097
      CHANNELS 3 Zrotation Xrotation Yrotation
      JOINT LeftFoot
      {
        OFFSET 3.16933 -46.5642 -3.96578
        CHANNELS 3 Zrotation Xrotation Yrotation
        JOINT LeftToeBase
        {
          OFFSET 0.346054 -6.02161 12.8035
          CHANNELS 3 Zrotation Xrotation Yrotation
          End Site
          {
            OFFSET 0.134235 -1.35082 5.13018
          }
        }
      }
    }
  }
  JOINT RightUpLeg
  {
    OFFSET -5.7928 -1.72406 10.6446
    CHANNELS 3 Zrotation Xrotation Yrotation
    JOINT RightLeg
    {
      OFFSET -2.57161 -44.7178 -7.85259
      CHANNELS 3 Zrotation Xrotation Yrotation
      JOINT RightFoot
      {
        OFFSET -3.10148 -46.5936 -4.03391
        CHANNELS 3 Zrotation Xrotation Yrotation
        JOINT RightToeBase
        {
          OFFSET -0.0828122 -6.13587 12.8035
          CHANNELS 3 Zrotation Xrotation Yrotation
          End Site
          {
            OFFSET -0.131328 -1.35082 5.13018
          }
        }
      }
    }
  }
}
MOTION
Frames: 7
Frame Time: 0.03333333333333333
0.0000 93.1000 0.0000 63.9857 -59.2246 -23.3216 -70.8173 -0.1922 87.8853 67.0872 66.2617 12.3235 8.7706 14.2666 6.1426 -120.1563 25.9727 163.4482 -162.7106 69.0295 -170.4578 -1.1062 -18.8134 -28.1788 -85.1164 36.7398 -133.9886 21.8535 -0.6717 -90.9974 0.1971 -0.3357 0.2958 -2.1051 5.2686 42.1240 -103.0821 -15.2403 95.5219 12.1125 1.3475 96.9772 -0.1592 0.2835 -0.1983 -58.7781 10.4013 104.8115 -3.2767 44.9765 -4.7910 -0.6515 -20.2202 -1.9488 5.5480 -14.5666 9.6057 -36.8322 -8.2650 94.3086 1.9559 38.3335 9.8807 0.7274 3.0389 -0.8907 1.3987 -13.9429 -0.6294 
0.0000 93.1000 0.0000 65.9312 -54.1983 -21.4596 -70.7757 0.6666 88.0627 67.5461 66.8644 13.3238 8.4827 14.8174 6.4231 -120.2787 25.8589 162.7449 -161.7762 68.9870 -172.0577 -0.4551 -18.6603 -27.2590 -83.6075 36.1127 -134.9185 21.9202 -0.9383 -91.8968 0.1568 -0.5721 0.0995 -1.6660 5.3442 41.0292 -109.5280 -13.9272 95.3006 13.1483 0.8852 96.5126 0.4249 0.6280 0.0875 -58.8969 9.1241 101.8282 -3.4949 42.1233 -6.5301 -0.5177 -18.4424 -2.0492 5.0597 -14.0927 9.9748 -39.0855 -10.7431 91.6484 1.9022 36.9291 9.1059 1.6186 3.3720 -0.2326 1.1866 -13.8324 -0.2800 
0.0000 93.1000 0.0000 67.9897 -49.7768 -19.4058 -70.7370 -0.2161 88.2820 67.0515 67.1012 15.3175 7.6062 15.7979 6.4655 -120.2482 26.3369 162.9538 -164.6352 69.7560 -169.2915 -1.0050 -17.8204 -26.3689 -82.1148 34.8774 -135.2725 21.3192 -1.9628 -93.3910 0.1960 -0.0257 0.2321 -2.0192 5.6528 39.4848 -114.7661 -12.6033 95.9742 13.7428 1.5518 94.9624 0.1747 -0.0157 -0.1278 -58.1794 8.8445 100.5575 -2.8521 39.8417 -6.7739 -1.0355 -16.9344 -1.8356 4.3291 -12.3452 7.0045 -40.1349 -13.3800 87.9369 2.1734 34.8113 7.9635 1.4684 2.4304 -0.7560 0.9567 -13.3567 1.1284 
0.0000 93.1000 0.0000 69.1412 -46.3654 -17.8187 -70.7366 0.1031 88.0859 66.7776 67.9681 16.1337 6.9728 16.5744 6.5758 -120.8550 26.8841 162.7131 -165.9914 69.9078 -168.6345 -0.6578 -17.8151 -26.1386 -81.5586 34.9175 -136.2806 20.9957 -1.9918 -93.0178 0.5190 -0.5200 0.1822 -2.1587 6.0412 37.5212 -119.1666 -11.9157 96.9708 16.6611 1.2664 93.7904 -0.0922 0.5507 -0.3922 -57.5930 9.3147 98.8489 -2.8042 38.6490 -8.9054 -1.0925 -14.6782 -1.1770 5.1532 -13.6261 7.5048 -42.0071 -13.9692 85.7168 0.6598 34.9077 6.9382 0.5157 1.6046 -0.8844 1.2487 -13.3711 0.6850 
0.0000 93.1000 0.0000 70.1192 -42.8731 -15.5555 -70.9037 0.5925 88.2200 67.8659 67.9430 16.2022 7.1572 17.2191 6.2134 -121.3156 26.9311 162.1890 -164.9887 69.7471 -169.7075 -0.4863 -17.9328 -25.4661 -80.1319 34.6609 -136.3589 21.9396 -2.1110 -93.9670 0.3602 -0.1226 -0.2163 -1.3497 5.9436 36.3072 -123.1932 -11.0948 97.7942 18.1867 0.3520 92.1741 0.6334 0.0499 0.2324 -57.0743 10.2497 98.9499 -3.0574 37.8577 -11.4232 -0.7172 -12.5548 -2.0230 5.1316 -13.7039 6.8639 -43.2023 -14.6793 82.7474 0.6977 34.8145 6.0047 -0.1537 1.1547 -0.1228 2.0526 -12.6950 0.9005 
0.0000 93.1000 0.0000 71.0735 -39.0499 -13.9023 -70.9325 0.3486 88.1756 69.1133 68.0979 15.6183 6.7797 17.2425 5.3899 -120.2010 26.8054 160.8928 -166.2242 69.9803 -168.1780 -0.7251 -18.0284 -25.5209 -80.2578 35.5603 -136.1559 22.3324 -1.9972 -93.9758 -0.2097 0.0583 0.0622 -1.4080 6.0488 35.1129 -127.0737 -10.5855 98.1723 19.6635 -0.1462 90.8863 0.5714 -0.0646 0.4252 -55.2234 12.2158 97.9282 -3.8177 38.3503 -12.1399 -1.4365 -11.1219 -1.7458 4.6307 -13.3429 7.1052 -45.0358 -14.6323 80.2024 0.5183 34.2136 5.7918 0.1013 0.9983 -0.2763 1.3517 -13.1677 0.4531 
0.0000 93.1000 0.0000 71.1042 -35.4123 -12.1142 -70.8528 -0.3805 88.0280 70.8648 67.9090 15.0426 7.3279 16.8098 5.3016 -120.1539 26.6876 159.8583 -167.2008 69.8173 -168.4094 -1.2402 -17.7999 -24.7047 -78.2848 37.6584 -137.1920 22.8643 -2.6711 -93.8103 -0.6204 0.1892 0.4143 -1.9999 6.5007 34.3159 -130.1016 -9.9286 99.0164 21.4530 -1.0457 88.9708 -0.0783 -0.2015 0.0390 -53.7474 13.1680 97.8511 -4.0034 38.9848 -13.6640 -1.9155 -10.6596 -1.1515 4.7551 -12.6043 7.8090 -46.1237 -15.4148 78.1481 0.2882 33.8556 5.3056 0.8823 1.0534 -1.2367 0.8047 -14.0652 0.4244 
